<?xml version="1.0" encoding="utf-8"?>
<!-- Generator: Adobe Illustrator 19.1.0, SVG Export Plug-In . SVG Version: 6.00 Build 0)  -->
<svg version="1.1" id="Layer_1" xmlns="http://www.w3.org/2000/svg" xmlns:xlink="http://www.w3.org/1999/xlink" x="0px" y="0px"
	 viewBox="-361 273.9 68.7 67.1" enable-background="new -361 273.9 68.7 67.1" xml:space="preserve">
<path fill="#141B35" d="M-301.1,297.7h-51.1c-0.5,0-0.9-0.4-0.9-0.9v-7.6c0-0.5,0.4-0.9,0.9-0.9h51.1c0.5,0,0.9,0.4,0.9,0.9v7.6
	C-300.2,297.3-300.6,297.7-301.1,297.7z"/>
<path fill="#141B35" d="M-301.1,312.1h-51.1c-0.5,0-0.9-0.4-0.9-0.9v-7.6c0-0.5,0.4-0.9,0.9-0.9h51.1c0.5,0,0.9,0.4,0.9,0.9v7.6
	C-300.2,311.7-300.6,312.1-301.1,312.1z"/>
<path fill="#141B35" d="M-301.1,326.5h-51.1c-0.5,0-0.9-0.4-0.9-0.9v-7.6c0-0.5,0.4-0.9,0.9-0.9h51.1c0.5,0,0.9,0.4,0.9,0.9v7.6
	C-300.2,326.1-300.6,326.5-301.1,326.5z"/>
</svg>
