<?xml version="1.0" encoding="utf-8"?>
<!-- Generator: Adobe Illustrator 19.1.0, SVG Export Plug-In . SVG Version: 6.00 Build 0)  -->
<svg version="1.1" id="Layer_1" xmlns="http://www.w3.org/2000/svg" xmlns:xlink="http://www.w3.org/1999/xlink" x="0px" y="0px"
	 viewBox="-376.5 291.4 99.8 32.1" enable-background="new -376.5 291.4 99.8 32.1" xml:space="preserve">
<g>
	<path fill="#141B35" d="M-369.5,314.3c0,0.8,0.2,1.4,0.7,1.8s1.2,0.6,2.1,0.6v1.7c-1.6,0-2.8-0.4-3.6-1.1s-1.3-1.7-1.3-2.9v-3.7
		c0-0.9-0.3-1.5-0.8-1.8c-0.5-0.4-1.3-0.5-2.2-0.5v-1.7c1.1,0,1.8-0.2,2.3-0.6s0.7-1,0.7-1.7v-3.8c0-1.3,0.4-2.3,1.3-3
		c0.9-0.7,2.1-1.1,3.6-1.1v1.7c-1.9,0-2.8,0.9-2.8,2.4v3.6c0,1.8-0.9,2.8-2.7,3.1v0.1c1.8,0.3,2.7,1.4,2.7,3.1V314.3z"/>
	<path fill="#141B35" d="M-349,305.3c0,3-0.8,5.2-2.4,6.8c-1.6,1.6-3.9,2.4-6.9,2.4h-5v-18h5.5c2.8,0,5,0.8,6.5,2.3
		S-349,302.5-349,305.3z M-351.2,305.4c0-2.3-0.6-4.1-1.8-5.3c-1.2-1.2-2.9-1.8-5.2-1.8h-3v14.3h2.5c2.5,0,4.4-0.6,5.6-1.8
		S-351.2,307.8-351.2,305.4z"/>
	<path fill="#D6FFBB" d="M-339.6,314.7c-2,0-3.6-0.6-4.7-1.8c-1.2-1.2-1.7-2.9-1.7-5c0-2.2,0.5-3.9,1.6-5.2c1.1-1.3,2.5-1.9,4.3-1.9
		c1.7,0,3,0.6,4,1.7c1,1.1,1.5,2.6,1.5,4.4v1.3h-9.3c0,1.6,0.4,2.8,1.2,3.6c0.8,0.8,1.8,1.2,3.2,1.2c1.4,0,2.9-0.3,4.3-0.9v1.8
		c-0.7,0.3-1.4,0.5-2,0.7S-338.7,314.7-339.6,314.7z M-340.1,302.5c-1.1,0-1.9,0.4-2.6,1.1c-0.6,0.7-1,1.7-1.1,2.9h7
		c0-1.3-0.3-2.3-0.9-3C-338.2,302.8-339.1,302.5-340.1,302.5z"/>
	<path fill="#D6FFBB" d="M-328.2,314.5l-5.1-13.5h2.2l2.9,8c0.7,1.9,1,3.1,1.2,3.6h0.1c0.1-0.4,0.4-1.3,0.9-2.7
		c0.5-1.4,1.6-4.3,3.2-8.9h2.2l-5.1,13.5H-328.2z"/>
	<path fill="#141B35" d="M-310.3,305h6.1v8.7c-0.9,0.3-1.9,0.5-2.9,0.7s-2.1,0.2-3.4,0.2c-2.7,0-4.8-0.8-6.3-2.4s-2.3-3.9-2.3-6.8
		c0-1.9,0.4-3.5,1.1-4.9s1.8-2.5,3.2-3.2c1.4-0.7,3.1-1.1,4.9-1.1c1.9,0,3.7,0.4,5.4,1.1l-0.8,1.8c-1.6-0.7-3.2-1-4.7-1
		c-2.2,0-3.9,0.7-5.1,2s-1.8,3.1-1.8,5.4c0,2.4,0.6,4.3,1.8,5.5c1.2,1.3,2.9,1.9,5.2,1.9c1.2,0,2.5-0.1,3.6-0.4v-5.5h-4V305z"/>
	<path fill="#141B35" d="M-288.6,307.7c0,2.2-0.6,3.9-1.7,5.1c-1.1,1.2-2.6,1.8-4.6,1.8c-1.2,0-2.3-0.3-3.2-0.8s-1.7-1.4-2.2-2.4
		s-0.8-2.3-0.8-3.7c0-2.2,0.5-3.9,1.6-5.1c1.1-1.2,2.6-1.8,4.6-1.8c1.9,0,3.4,0.6,4.5,1.9C-289.2,303.9-288.6,305.6-288.6,307.7z
		 M-298.9,307.7c0,1.7,0.3,3,1,3.9s1.7,1.4,3,1.4s2.3-0.4,3-1.3c0.7-0.9,1-2.2,1-3.9c0-1.7-0.3-3-1-3.9c-0.7-0.9-1.7-1.3-3.1-1.3
		c-1.3,0-2.3,0.4-3,1.3C-298.5,304.7-298.9,306-298.9,307.7z"/>
	<path fill="#141B35" d="M-280.8,307.4c-1.8-0.3-2.7-1.4-2.7-3.1v-3.6c0-1.6-0.9-2.4-2.8-2.4v-1.7c1.5,0,2.7,0.4,3.6,1.1
		c0.9,0.7,1.3,1.7,1.3,2.9v3.8c0,0.8,0.2,1.4,0.7,1.8c0.5,0.4,1.3,0.6,2.3,0.6v1.7c-1,0-1.8,0.2-2.3,0.5c-0.5,0.4-0.8,1-0.8,1.8v3.7
		c0,1.3-0.4,2.2-1.3,2.9c-0.8,0.7-2,1.1-3.6,1.1v-1.7c0.9,0,1.6-0.2,2.1-0.6c0.5-0.4,0.7-1,0.7-1.8v-3.6c0-0.9,0.2-1.6,0.7-2.1
		c0.5-0.5,1.1-0.8,2.1-1V307.4z"/>
</g>
</svg>
